<?xml version="1.0" ?><svg id="Layer_1" style="enable-background:new 0 0 32 32;" version="1.1" viewBox="0 0 32 32" xml:space="preserve" xmlns="http://www.w3.org/2000/svg" xmlns:xlink="http://www.w3.org/1999/xlink"><style type="text/css">
	.st0{fill:none;stroke:#414042;stroke-linecap:round;stroke-linejoin:round;stroke-miterlimit:10;}
</style><g><circle class="st0" cx="16" cy="14" r="1"/><line class="st0" x1="16" x2="16" y1="4.5" y2="13"/><line class="st0" x1="11.25" x2="15.5" y1="5.77" y2="13.13"/><line class="st0" x1="7.77" x2="15.13" y1="9.25" y2="13.5"/><line class="st0" x1="6.5" x2="15" y1="14" y2="14"/><line class="st0" x1="7.77" x2="15.13" y1="18.75" y2="14.5"/><line class="st0" x1="16" x2="16" y1="23.5" y2="15"/><line class="st0" x1="24.23" x2="16.87" y1="18.75" y2="14.5"/><line class="st0" x1="25.5" x2="17" y1="14" y2="14"/><line class="st0" x1="24.23" x2="16.87" y1="9.25" y2="13.5"/><line class="st0" x1="20.75" x2="16.5" y1="5.77" y2="13.13"/><circle class="st0" cx="16" cy="14" r="9.5"/><circle class="st0" cx="15.99" cy="14" r="11.5"/><circle class="st0" cx="16" cy="1.5" r="1"/><path class="st0" d="M10.62,2.67c0.28,0.48,0.11,1.09-0.37,1.37C9.77,4.32,9.16,4.15,8.88,3.67C8.61,3.2,8.77,2.58,9.25,2.31   C9.73,2.03,10.34,2.2,10.62,2.67z"/><path class="st0" d="M5.67,6.88c0.48,0.28,0.64,0.89,0.37,1.37C5.76,8.73,5.15,8.89,4.67,8.62C4.2,8.34,4.03,7.73,4.31,7.25   C4.58,6.77,5.2,6.61,5.67,6.88z"/><circle class="st0" cx="3.5" cy="14" r="1"/><path class="st0" d="M4.67,19.38c0.48-0.28,1.09-0.11,1.37,0.37c0.28,0.48,0.11,1.09-0.37,1.37c-0.48,0.28-1.09,0.11-1.37-0.37   C4.03,20.27,4.2,19.66,4.67,19.38z"/><circle class="st0" cx="16" cy="26.5" r="1"/><path class="st0" d="M26.33,21.12c-0.48-0.28-0.64-0.89-0.37-1.37c0.28-0.48,0.89-0.64,1.37-0.37c0.48,0.28,0.64,0.89,0.37,1.37   C27.42,21.23,26.8,21.39,26.33,21.12z"/><circle class="st0" cx="28.5" cy="14" r="1"/><path class="st0" d="M27.33,8.62c-0.48,0.28-1.09,0.11-1.37-0.37c-0.28-0.48-0.11-1.09,0.37-1.37c0.48-0.28,1.09-0.11,1.37,0.37   C27.97,7.73,27.8,8.34,27.33,8.62z"/><path class="st0" d="M23.12,3.67c-0.28,0.48-0.89,0.64-1.37,0.37c-0.48-0.28-0.64-0.89-0.37-1.37c0.28-0.48,0.89-0.64,1.37-0.37   C23.23,2.58,23.39,3.2,23.12,3.67z"/><polyline class="st0" points="24.5,30.5 15.99,14 7.5,30.5  "/><line class="st0" x1="5.5" x2="26.5" y1="30.5" y2="30.5"/></g></svg>